<?xml version="1.0" encoding="UTF-8"?> <svg xmlns="http://www.w3.org/2000/svg" width="570" height="200" viewBox="0 0 570 200" fill="none"><path d="M174.015 10.0079C177.495 9.9907 180.978 10.0079 184.458 10.0021C184.464 15.4525 184.461 20.9028 184.458 26.356C188.659 25.7926 193.001 25.6525 197.159 26.5733C201.475 27.5427 205.542 30.0305 207.946 33.7937C210.78 38.1659 211.444 43.5962 210.994 48.692C210.579 53.4331 208.324 58.0599 204.555 61.0281C200.296 64.4567 194.701 65.7578 189.323 65.7979C184.195 65.7807 179.052 65.3747 174.023 64.3452C174.003 46.2328 174.02 28.1203 174.015 10.0079V10.0079ZM184.458 33.6135C184.464 41.6803 184.461 49.7443 184.461 57.8111C187.291 58.1514 190.182 58.5432 193.018 58.0285C196.269 57.4136 198.711 54.6141 199.638 51.543C200.711 47.8942 200.634 43.9537 199.692 40.2877C198.957 37.4282 196.885 34.866 194.043 33.9052C190.946 32.8815 187.641 33.462 184.458 33.6135V33.6135Z" fill="black"></path><path d="M213.946 12.896C217.435 12.6129 220.918 12.2641 224.407 11.9896C224.693 15.2008 224.973 18.4121 225.265 21.6205C221.782 21.9236 218.302 22.2411 214.822 22.5413C214.498 19.33 214.252 16.1102 213.946 12.896Z" fill="black"></path><path d="M245.416 26.7134C249.237 25.724 253.29 25.6725 257.142 26.4961C262.511 26.3445 267.88 26.1043 273.246 25.9327C273.255 28.1117 273.255 30.2879 273.246 32.4668C270.599 32.3725 267.969 31.9979 265.316 32.0207C267.373 33.9166 268.18 36.7933 268.304 39.5099C268.389 42.6268 267.402 45.8696 265.164 48.1143C262.394 50.9453 258.435 52.3665 254.543 52.6925C252.385 52.907 250.199 52.9012 248.066 52.4895C246.816 53.5475 245.259 54.7914 245.422 56.6215C245.519 57.7939 246.816 58.1914 247.8 58.3172C253.35 59.0865 259.039 58.0227 264.54 59.2838C267.03 59.8328 269.5 61.0052 271.1 63.0469C272.691 65.2688 272.745 68.2056 272.348 70.8106C271.686 74.8541 268.275 77.8595 264.6 79.2778C259.512 81.248 253.931 81.3195 248.55 81.1279C244.804 80.9821 241.04 80.6418 237.411 79.6581C237.394 77.3533 237.411 75.0456 237.403 72.7408C243.164 74.0305 249.128 74.9942 255.035 74.2507C257.079 73.9447 259.26 73.5129 260.854 72.1032C261.707 71.3826 262.076 70.1358 261.687 69.0835C261.232 68.0369 260.038 67.6823 259.031 67.402C256.73 66.8645 254.346 66.8759 252.002 66.9788C248.293 66.8473 244.478 66.9588 240.917 65.7549C238.742 65.0286 236.704 63.4044 236.095 61.1196C235.574 58.9921 235.7 56.6187 236.888 54.7256C237.918 52.7583 239.752 51.4486 241.404 50.0388C238.121 48.4432 236.032 45.0289 235.471 41.5002C235.062 38.5262 235.219 35.2892 236.873 32.6899C238.731 29.6101 241.999 27.6256 245.416 26.7134V26.7134ZM250.09 32.7699C248.716 33.0473 247.294 33.725 246.615 35.0176C245.811 36.5703 245.734 38.3833 245.788 40.0961C245.894 41.5945 246.083 43.2331 247.116 44.4055C248.261 45.6808 250.064 46.0154 251.698 46.0983C253.587 46.1184 255.722 45.7724 257.013 44.2596C258.287 42.5868 258.275 40.3564 258.215 38.3547C258.115 36.6332 257.711 34.6716 256.169 33.6564C254.383 32.5297 252.122 32.4096 250.09 32.7699Z" fill="black"></path><path d="M215.408 29.3356C218.889 29.0182 222.369 28.7065 225.852 28.4149C227.681 48.7749 229.458 69.1378 231.275 89.5007C236.925 88.2654 243.069 87.6335 248.562 89.8611C252.434 91.3852 255.611 94.4707 257.345 98.2424C259.177 102.111 259.755 106.481 259.563 110.727C259.271 115.634 256.893 120.413 252.983 123.432C248.579 126.904 242.895 128.302 237.377 128.542C232.967 128.768 228.525 128.791 224.132 128.262C221.233 95.2856 218.331 62.3092 215.408 29.3356V29.3356ZM231.913 96.7526C232.635 104.794 233.324 112.84 234.06 120.882C236.996 120.913 240.016 121.116 242.855 120.207C245.886 119.2 247.929 116.286 248.562 113.247C249.294 109.635 248.874 105.849 247.737 102.366C246.759 99.3834 244.334 96.784 241.189 96.1349C238.104 95.5544 234.967 96.2779 231.913 96.7526V96.7526Z" fill="black"></path><path d="M367.84 73.2813C372.099 72.595 376.523 73.1555 380.545 74.671C385.902 75.3945 391.286 75.955 396.655 76.6156C396.325 78.7745 395.988 80.9306 395.647 83.0867C393.034 82.5749 390.476 81.8228 387.843 81.4167C389.291 83.2183 389.752 85.5888 389.74 87.8479C389.66 91.1249 388.426 94.4992 385.922 96.6954C383.444 98.9401 380.069 99.9467 376.792 100.198C373.716 100.316 370.579 100.038 367.669 98.9916C366.243 99.838 364.483 100.865 364.397 102.723C364.334 103.879 365.551 104.413 366.475 104.705C371.103 106.086 376.003 106.181 380.653 107.473C383.544 108.288 386.44 109.652 388.258 112.137C389.697 114.001 389.7 116.518 389.354 118.743C388.973 121.213 387.765 123.581 385.802 125.168C382.68 127.756 378.464 128.611 374.491 128.534C370.15 128.631 365.857 127.827 361.627 126.935C358.656 126.283 355.714 125.443 352.935 124.196C353.299 121.917 353.642 119.638 354.003 117.359C357.606 118.834 361.329 120.018 365.133 120.85C368.298 121.456 371.587 121.894 374.789 121.299C376.023 121.027 377.365 120.584 378.12 119.503C378.802 118.562 378.793 117.018 377.766 116.321C376.18 115.12 374.168 114.722 372.262 114.339C368.367 113.727 364.42 113.232 360.677 111.951C358.665 111.233 356.673 110.132 355.471 108.311C354.054 106.215 354.226 103.412 355.173 101.165C356.407 98.514 358.991 96.9527 361.432 95.5573C358.35 93.3897 356.816 89.5465 356.893 85.8605C357.005 83.204 357.54 80.4331 359.18 78.2684C361.226 75.5032 364.489 73.8418 367.84 73.2813ZM371.189 80.0384C369.134 80.4731 368.032 82.512 367.648 84.4136C367.236 86.4753 366.836 88.783 367.86 90.7332C368.942 92.4947 371.117 93.1009 373.049 93.3354C374.901 93.5756 377.116 93.2439 378.286 91.6311C379.408 90.044 379.7 88.0509 379.889 86.1608C380.044 84.4221 379.709 82.3861 378.172 81.3224C376.177 79.9412 373.538 79.5094 371.189 80.0384Z" fill="black"></path><path d="M267.453 89.8782C274.462 88.4885 281.694 88.1224 288.798 88.9288C292.272 89.3978 295.919 90.6446 298.151 93.4984C299.831 95.4944 300.392 98.1709 300.443 100.719C300.44 109.718 300.435 118.714 300.446 127.713C293.958 128.488 287.413 128.974 280.882 128.608C277.367 128.391 273.707 128.182 270.521 126.526C267.671 125.131 265.55 122.317 265.112 119.163C264.677 116.243 264.689 113.015 266.288 110.427C268.117 107.77 271.182 106.255 274.253 105.526C279.399 104.222 284.751 104.593 290.009 104.505C289.774 102.274 290.306 99.655 288.678 97.8306C287.192 96.3236 284.94 96.0806 282.939 95.909C277.745 95.6373 272.539 96.1892 267.453 97.2387C267.456 94.7852 267.459 92.3317 267.453 89.8782V89.8782ZM278.369 111.905C277.052 112.526 276.116 113.85 275.965 115.297C275.796 116.867 275.819 118.634 276.832 119.941C277.659 121.067 279.061 121.568 280.398 121.762C283.592 122.083 286.817 121.942 289.991 121.488C289.994 118.073 289.994 114.662 289.994 111.251C287.636 111.102 285.275 111.173 282.917 111.159C281.383 111.219 279.777 111.222 278.369 111.905Z" fill="black"></path><path d="M319.264 93.2811C323.654 91.4481 328.15 89.4893 332.975 89.3063C336.616 89.0976 340.534 90.1813 342.998 92.998C344.947 95.1913 345.789 98.1509 345.8 101.045C345.811 110.181 345.797 119.32 345.806 128.457C342.297 128.462 338.791 128.457 335.285 128.459C335.288 119.969 335.282 111.476 335.285 102.986C335.282 101.622 335.05 100.13 334.023 99.1346C332.807 97.8707 330.943 97.6448 329.278 97.7248C326.175 97.9107 323.142 98.7457 320.268 99.8952C320.251 109.418 320.263 118.937 320.263 128.457C316.754 128.462 313.248 128.459 309.742 128.457C309.742 115.591 309.742 102.723 309.742 89.8582C312.913 89.8525 316.087 89.8582 319.261 89.8553C319.252 90.9963 319.258 92.1373 319.264 93.2811V93.2811Z" fill="black"></path><path d="M360.302 136.04C362.634 135.643 365.076 136.578 366.747 138.208C367.992 139.486 368.393 141.302 368.742 142.992C369.615 147.455 369.306 152.014 368.988 156.515C368.579 160.341 368.004 164.25 366.292 167.738C365.411 169.58 363.736 171.196 361.607 171.333C360.21 171.333 358.416 171.647 357.477 170.343C356.269 169.463 355.314 168.293 354.432 167.109C353.662 165.005 353.711 162.708 353.671 160.498C353.611 155.794 354.123 151.09 355.01 146.475C355.574 143.727 356.224 140.936 357.623 138.476C358.236 137.427 359.091 136.389 360.302 136.04V136.04ZM363.788 141.722C363.791 143.709 363.762 145.851 362.629 147.573C361.47 148.147 360.027 147.59 359.669 146.323C358.556 150.186 357.978 154.19 357.835 158.207C357.855 160.449 357.623 162.757 358.313 164.93C358.605 165.84 359.212 166.826 360.253 166.952C360.912 167.138 361.455 166.523 361.647 165.957C362.091 164.796 362.655 163.683 363.115 162.528C364.729 158.931 364.984 154.925 365.176 151.041C365.202 147.907 365.23 144.593 363.788 141.722V141.722Z" fill="black"></path><path d="M262.288 139.552C262.768 138.428 263.398 137.147 264.657 136.763C265.579 136.5 267.016 136.712 267.127 137.882C266.847 138.865 266.535 139.855 266.014 140.744C264.935 142.588 264.511 144.71 263.667 146.658C262.98 148.11 262.124 149.514 261.79 151.107C261.149 153.867 260.837 156.692 260.155 159.443C259.406 162.319 259.603 165.342 258.902 168.227C258.481 170.195 258.347 172.216 258.364 174.227C258.35 175.668 257.734 177.035 257.791 178.482C257.8 180.595 257.852 182.725 257.485 184.816C257.262 187.232 253.533 188.484 252.062 186.443C250.505 184.498 250.073 181.916 248.539 179.963C248.024 177.981 246.518 176.448 245.943 174.487C245.273 172.622 244.818 170.664 243.825 168.934C241.956 163.864 241.009 158.505 240.245 153.166C240.124 151.802 239.835 150.369 240.288 149.04C241.138 148.41 242.291 148.205 243.327 148.313C244.386 148.445 244.918 149.5 245.096 150.444C246.361 156.552 247.151 162.788 249.191 168.708C250.419 170.729 250.92 173.074 251.956 175.196C252.723 169.511 253.79 163.838 255.634 158.393C256.046 156.283 256.521 154.161 257.448 152.208C257.963 151.179 258.123 150.032 258.475 148.951C259.471 145.711 260.985 142.671 262.288 139.552V139.552Z" fill="black"></path><path d="M233.708 138.476C234.658 138.133 235.997 137.547 236.77 138.536C237.737 139.92 237.732 141.713 237.835 143.335C238.001 146.781 237.239 150.181 237.334 153.621C237.405 155.908 237.162 158.193 237.302 160.478C237.383 162.01 237.328 163.549 237.265 165.082C237.202 165.839 237.838 166.4 237.938 167.126C238.224 168.728 237.74 170.326 237.583 171.916C237.268 174.009 237.351 176.131 237.325 178.241C237.242 179.511 237.148 180.924 236.244 181.916C235.099 183.123 233.024 183.16 231.722 182.185C230.508 181.313 229.481 180.22 228.459 179.145C226.908 177.521 226.287 175.285 225.005 173.48C223.931 172.468 224.026 170.858 223.17 169.706C223.233 173.698 223.823 177.669 223.737 181.667C223.734 182.482 223.513 183.471 222.681 183.826C221.931 184.075 221.089 184.081 220.328 183.88C219.192 183.326 218.886 181.927 218.757 180.786C218.482 176.185 218.104 171.593 217.661 167.006C217.566 166.163 217.661 165.319 217.706 164.478C217.872 161.685 216.759 158.977 216.985 156.186C217 155.256 217.755 154.673 218.405 154.138C218.305 153.586 218.139 153.049 218.09 152.494C218.451 151.427 219.49 150.647 220.531 150.315C221.321 150.466 222.185 150.795 222.6 151.539C223.708 153.092 223.453 155.085 223.84 156.858C224 157.816 224.601 158.616 224.856 159.546C225.611 162.308 226.244 165.136 227.612 167.678C229 170.275 229.263 173.492 231.45 175.625C231.959 171.836 232.368 168.038 232.749 164.235C233.067 160.609 233.424 156.972 233.31 153.326C233.121 151.033 233.499 148.745 233.479 146.452C233.496 144.83 233.997 143.258 233.968 141.639C233.931 140.71 232.952 140.298 232.534 139.569C232.44 138.9 233.238 138.705 233.708 138.476V138.476Z" fill="black"></path><path d="M391.102 139.151C392.09 138.505 393.243 137.979 394.445 137.987C395.827 138.339 396.076 140.009 396.277 141.204C396.926 145.731 395.684 150.232 395.962 154.767C395.77 158.204 396.059 161.645 395.882 165.082C395.799 165.665 396.176 166.143 396.4 166.649C396.766 167.592 396.629 168.622 396.514 169.6C396.237 171.604 395.885 173.612 395.956 175.642C395.936 177.449 396.082 179.345 395.404 181.058C394.688 182.88 392.193 183.349 390.627 182.376C389.302 181.55 388.275 180.349 387.176 179.262C385.527 177.624 384.92 175.287 383.578 173.44C382.519 172.454 382.659 170.855 381.792 169.74C381.821 173.623 382.39 177.486 382.367 181.375C382.313 182.15 382.293 183.1 381.623 183.626C380.819 184.124 379.777 184.101 378.893 183.872C377.734 183.234 377.448 181.787 377.342 180.583C377.133 176.855 376.821 173.131 376.495 169.411C376.374 167.864 376.091 166.317 376.28 164.764C376.54 161.873 375.376 159.071 375.587 156.186C375.599 155.239 376.394 154.664 377.03 154.098C376.901 153.372 376.426 152.52 376.978 151.859C377.594 151.159 378.369 150.349 379.362 150.335C380.049 150.564 380.811 150.818 381.177 151.505C382.671 153.566 381.778 156.354 383.054 158.51C384.17 161.379 384.523 164.533 386.022 167.266C387.528 169.974 387.797 173.349 390.049 175.619C390.942 168.507 391.843 161.367 391.955 154.19C391.738 151.433 392.064 148.685 392.115 145.928C392.181 144.484 392.608 143.075 392.585 141.628C392.55 140.538 391.145 140.226 391.102 139.151V139.151Z" fill="black"></path><path d="M270.776 143.489C271.592 142.677 272.931 142.222 274.005 142.794C274.946 143.335 275.39 144.43 275.587 145.448C275.925 147.919 275.876 150.501 277.033 152.78C280.315 152.448 283.612 152.231 286.901 151.942C288.005 151.839 289.113 151.976 290.212 152.096C290.524 153.212 290.306 154.478 289.528 155.351C288.306 156.271 286.666 155.837 285.281 156.28C282.213 157.152 279.079 157.773 275.928 158.247C275.862 159.566 276.097 160.878 276.045 162.199C276.125 164.656 275.748 167.129 276.168 169.571C277.422 169.354 278.518 168.653 279.219 167.592C279.666 167.787 280.072 168.179 280.581 168.184C281.337 167.853 281.952 167.281 282.665 166.869C283.939 167.592 283.778 169.194 283.764 170.443C282.877 171.353 281.606 171.619 280.464 172.062C279.734 172.299 279.268 172.963 278.592 173.3C277.84 173.603 277.015 173.746 276.326 174.195C275.791 174.441 275.934 175.136 275.845 175.616C275.813 178.018 275.802 180.455 276.263 182.82C276.446 183.878 277.771 183.875 278.61 183.872C281.14 183.858 282.991 181.87 285.295 181.155C286.202 180.778 286.895 181.65 287.622 182.033C286.826 184.604 284.651 186.477 282.287 187.606C279.554 188.945 276.248 189.119 273.418 187.972C271.844 187.338 270.542 185.934 270.318 184.212C269.792 181.927 270.819 179.531 270.13 177.289C269.073 176.571 268.046 175.679 267.72 174.39C268.65 173.638 269.929 173.186 270.519 172.093C270.602 171.173 270.261 170.28 270.258 169.365C270.324 166.157 270.742 162.943 270.442 159.74C270.307 158.771 269.154 158.682 268.435 158.345C267.205 157.944 266.878 156.217 267.691 155.285C268.289 154.541 269.245 154.284 270.118 154.015C270.456 151.602 270.089 149.177 269.981 146.763C269.946 145.628 270.055 144.416 270.776 143.489V143.489Z" fill="black"></path><path d="M321.611 144.238C323.165 142.786 325.503 142.134 327.555 142.783C328.794 143.361 330.234 143.809 331.032 145.005C332.314 146.815 332.452 149.105 332.732 151.233C332.984 153.726 333.23 156.289 332.695 158.759C332.423 159.806 331.51 161.216 330.248 160.755C329.121 159.405 329.352 157.512 329.221 155.877C329.181 154.187 328.339 152.646 328.288 150.961C328.245 149.754 328.019 148.365 327.02 147.567C326.307 147.089 325.477 147.658 325.002 148.205C322.71 150.864 321.677 154.444 321.782 157.921C321.888 159.657 322.217 161.539 323.471 162.843C324.355 163.781 325.346 164.644 325.981 165.788C326.396 166.606 327.295 166.938 327.93 167.544C330.065 170.069 332.758 172.068 334.839 174.656C336.341 176.649 337.901 178.819 338.204 181.364C338.382 182.251 337.518 182.8 337.097 183.463C336.026 184.938 334.146 185.327 332.466 185.653C329.71 186.151 326.931 186.608 324.126 186.654C322.778 186.566 321.25 186.548 320.177 185.622C319.081 184.409 317.461 183.612 316.868 182.005C316.173 180.04 316.76 177.915 317.343 176C317.653 175.23 317.776 174.267 318.574 173.829C319.676 172.974 320.755 171.373 322.369 171.939C322.784 173.843 321.565 175.528 320.789 177.161C320.246 178.236 319.911 179.703 320.775 180.712C321.748 181.793 323.316 181.942 324.682 182.005C326.931 182.016 329.172 181.676 331.367 181.198C331.891 181.104 332.34 180.806 332.772 180.509C332.446 179.563 331.854 178.745 331.221 177.984C329.126 175.422 326.714 173.146 324.427 170.761C322.381 168.613 320.059 166.7 318.319 164.281C316.15 160.484 316.161 155.791 317.378 151.688C318.245 148.96 319.473 146.214 321.611 144.238V144.238Z" fill="black"></path><path d="M296.594 149.26C297.564 147.979 299.161 147.41 300.69 147.138C303.114 146.723 305.647 147.781 307.192 149.663C309.416 152.222 310.486 155.708 310.183 159.074C310.126 160.332 309.316 161.367 309.024 162.565C308.798 163.332 308.723 164.198 308.171 164.824C307.129 166.083 306.027 167.295 305.066 168.616C304.347 169.626 303.237 170.22 302.278 170.964C301.256 171.739 300.22 172.497 299.241 173.323C301.188 174.567 303.592 173.649 305.661 173.217C308.168 172.542 310.747 171.739 312.721 169.974C314.169 168.645 316.187 167.813 318.153 168.387C317.913 169.108 317.75 169.891 317.272 170.501C316.671 171.141 315.915 171.63 315.409 172.359C314.685 173.352 313.903 174.338 312.776 174.893C309.413 176.763 305.692 178.261 301.797 178.356C300.718 178.367 299.642 178.356 298.569 178.359C298.383 181.007 298.597 183.68 299.173 186.271C299.396 187.349 299.413 188.71 298.5 189.488C296.72 190.706 293.669 189.651 293.446 187.375C293.38 184.61 293.3 181.847 293.217 179.085C293.054 174.341 293.2 169.591 293.125 164.844C293.025 161.376 292.819 157.913 292.642 154.45C292.625 152.92 291.551 151.35 292.344 149.869C293.309 148.496 295.209 149.025 296.594 149.26V149.26ZM301.036 151.985C299.688 153.195 299.427 155.065 299.399 156.78C299.387 159.943 298.775 163.06 298.46 166.197C298.4 166.706 298.463 167.218 298.535 167.724C301.033 166.291 302.358 163.552 304.247 161.476C305.412 158.608 305.515 154.842 303.214 152.494C302.676 151.965 301.68 151.207 301.036 151.985Z" fill="black"></path><path d="M341.687 147.112C342.832 146.732 343.828 147.596 344.644 148.279C345.763 149.457 345.563 151.224 345.431 152.711C344.876 156.423 344.767 160.195 345.036 163.935C345.056 164.884 345.528 165.759 345.568 166.697C344.884 168.988 345.806 171.321 345.737 173.64C345.774 175.877 345.551 178.15 346.095 180.346C346.318 181.141 346.169 182.179 345.431 182.662C344.386 183.166 343.004 183.025 342.163 182.202C341.307 181.424 340.883 180.303 340.551 179.228C339.664 176.014 339.724 172.654 339.581 169.354C339.292 162.986 338.385 156.583 339.163 150.218C339.238 148.759 340.282 147.495 341.687 147.112V147.112Z" fill="black"></path><path d="M181.832 147.598C182.914 147.055 184.327 147.124 185.192 148.033C186.8 149.709 187.61 151.976 188.145 154.193C188.901 157.452 189.038 160.818 188.955 164.152C188.907 164.85 188.835 165.834 188.034 166.074C187.029 166.337 186.168 165.468 185.73 164.661C184.15 161.682 184.204 158.213 183.569 154.982C182.865 156.326 182.513 157.813 182.055 159.251C180.633 164.19 179.579 169.34 179.949 174.501C180.014 176.14 180.993 177.504 181.903 178.788C182.321 179.322 182.942 178.848 183.294 178.496C184.694 177.118 185.34 175.205 186.437 173.612C186.975 172.908 187.55 172.236 188.082 171.53C189.442 169.894 190.154 167.747 191.98 166.514C192.587 167.206 193.122 167.967 193.446 168.839C192.744 170.252 191.683 171.516 191.425 173.111C191.096 173.506 190.767 173.909 190.672 174.433C190.469 175.362 189.499 175.848 189.276 176.772C188.932 177.484 189.49 178.336 188.969 178.994C188.102 180.295 186.895 181.318 185.715 182.328C184.842 183.026 183.927 183.815 182.759 183.903C181.11 183.998 179.139 184.089 177.934 182.742C176.949 181.587 176.196 180.255 175.447 178.942C173.944 176.197 173.944 172.977 174.03 169.934C174.333 163.964 175.449 157.973 177.876 152.485C178.789 150.601 179.883 148.574 181.832 147.598Z" fill="black"></path><path d="M204.333 147.804C206.883 147.235 209.625 148.319 211.491 150.063C212.976 151.459 213.428 153.538 213.837 155.454C214.404 158.814 214.699 162.259 214.37 165.659C214.318 170.298 213.803 174.956 212.558 179.434C211.831 181.847 210.892 184.384 208.892 186.045C207.169 187.392 204.799 187.475 202.73 187.066C201.857 186.96 201.451 186.097 200.781 185.648C199.702 184.901 199.012 183.772 198.137 182.825C197.484 181.767 197.424 180.475 197.261 179.274C196.826 174.155 197.152 168.999 197.83 163.915C198.448 159.769 199.138 155.562 200.844 151.702C201.588 150.123 202.601 148.419 204.333 147.804V147.804ZM208.308 154.061C208.331 156.134 208.319 158.305 207.329 160.189C207.057 160.993 206.047 160.867 205.377 160.827C204.499 160.772 204.118 159.9 203.729 159.251C202.71 163.026 202.015 166.892 201.8 170.804C201.685 173.626 201.454 176.5 202.029 179.291C202.312 180.509 202.876 181.976 204.244 182.279C204.951 182.574 205.675 181.993 205.91 181.344C206.823 179.036 207.967 176.812 208.666 174.421C209.739 169.954 210.008 165.328 209.839 160.75C209.702 158.462 209.413 156.108 208.308 154.061Z" fill="black"></path><path d="M350.574 178.685C353.753 178.313 356.982 178.47 360.181 178.427C363.307 178.545 366.449 178.553 369.56 178.899C371.658 179.245 372.382 182.342 370.782 183.669C369.981 184.347 368.879 184.098 367.929 184.052C363.069 183.752 358.195 183.62 353.33 183.795C352.151 183.735 350.817 184.172 349.764 183.457C348.084 182.279 348.567 179.222 350.574 178.685Z" fill="black"></path></svg> 