<?xml version="1.0" standalone="no"?>
<!DOCTYPE svg PUBLIC "-//W3C//DTD SVG 20010904//EN"
 "http://www.w3.org/TR/2001/REC-SVG-20010904/DTD/svg10.dtd">
<svg version="1.0" xmlns="http://www.w3.org/2000/svg"
 width="1000.000000pt" height="331.000000pt" viewBox="0 0 1000.000000 331.000000"
 preserveAspectRatio="xMidYMid meet">

<g transform="translate(0.000000,331.000000) scale(0.100000,-0.100000)"
fill="#000000" stroke="none">
<path d="M1645 3089 c-155 -21 -348 -80 -482 -148 -108 -54 -244 -153 -345
-249 -54 -52 -96 -97 -94 -100 3 -2 49 37 102 87 203 192 427 311 705 373 89
20 132 23 294 23 212 0 284 -11 462 -70 501 -167 872 -605 958 -1130 19 -118
19 -348 0 -461 -83 -485 -411 -897 -862 -1086 -115 -48 -292 -94 -396 -104
-42 -4 -77 -11 -77 -16 0 -23 227 18 376 67 513 170 884 604 976 1140 28 162
21 389 -15 545 -67 282 -196 517 -393 714 -204 204 -470 345 -755 401 -100 20
-355 28 -454 14z"/>
<path d="M7314 2965 c-4 -8 -16 -15 -28 -15 -21 0 -22 -4 -21 -80 1 -47 7 -86
15 -95 10 -12 10 -15 -4 -15 -19 0 -19 -1 -6 -35 14 -38 -9 -59 -55 -51 -20 4
-36 2 -40 -5 -5 -7 -23 -9 -50 -5 -47 8 -59 -1 -68 -51 -8 -41 12 -59 51 -45
15 5 51 7 79 5 40 -4 53 -10 63 -28 7 -13 10 -31 6 -40 -3 -9 1 -32 9 -51 13
-31 13 -36 0 -41 -17 -6 -20 -49 -4 -59 6 -3 8 -17 5 -30 -15 -57 -17 -188 -5
-211 11 -20 11 -26 -1 -33 -11 -7 -11 -11 -1 -24 8 -9 11 -26 7 -41 -8 -31 9
-65 32 -65 9 0 29 -13 44 -29 33 -35 90 -44 178 -30 73 12 105 27 140 65 l25
27 -23 -6 c-15 -3 -22 -1 -19 6 2 7 15 13 29 15 30 4 59 52 32 52 -12 0 -15 6
-10 24 4 15 0 29 -12 40 -19 17 -32 12 -32 -11 0 -8 -13 -26 -30 -40 -16 -13
-30 -31 -30 -39 0 -18 -37 -38 -45 -24 -9 14 -72 13 -77 -2 -5 -13 -41 3 -38
18 0 5 -8 10 -20 12 -11 2 -20 6 -21 10 -5 32 -4 463 1 482 8 32 46 40 158 30
52 -4 92 -3 99 3 7 5 21 7 30 5 14 -4 18 2 18 26 0 17 -5 40 -12 51 -10 18
-22 21 -83 26 -47 4 -156 -5 -161 -14 -10 -14 -29 1 -29 24 0 10 -7 19 -15 19
-18 0 -19 12 -3 28 8 8 8 15 -2 27 -7 8 -10 18 -7 22 4 3 2 12 -5 20 -9 11 -6
17 11 29 17 12 19 19 11 29 -7 8 -9 23 -5 35 4 11 4 39 0 60 -6 38 -9 40 -41
40 -22 0 -37 -6 -40 -15z"/>
<path d="M2060 2932 c22 -10 25 -36 3 -28 -15 6 -16 5 -5 -5 10 -11 15 -10 28
3 20 20 10 38 -19 37 -16 0 -18 -2 -7 -7z"/>
<path d="M2215 2870 c-10 -17 20 -44 40 -36 9 3 15 14 13 23 -4 21 -43 30 -53
13z"/>
<path d="M2380 2795 c-10 -12 -10 -18 0 -30 16 -19 39 -19 46 0 6 15 -11 45
-26 45 -4 0 -13 -7 -20 -15z"/>
<path d="M2530 2695 c-10 -12 -10 -18 0 -30 16 -19 39 -19 46 0 6 15 -11 45
-26 45 -4 0 -13 -7 -20 -15z"/>
<path d="M8880 2677 c-19 -18 -41 -33 -50 -33 -8 -1 -21 -3 -29 -5 -8 -2 -17
6 -20 18 -4 16 -10 20 -20 13 -10 -6 -23 -2 -39 11 -33 26 -43 24 -75 -12 -31
-35 -38 -96 -12 -105 8 -4 15 -12 15 -20 0 -7 6 -11 14 -8 22 8 29 -14 16 -47
-11 -26 -10 -32 6 -51 14 -15 15 -22 7 -25 -10 -3 -10 -10 -2 -24 5 -11 6 -25
2 -32 -4 -6 -7 -81 -6 -165 2 -136 0 -154 -15 -158 -31 -10 -46 -20 -64 -45
-15 -20 -16 -30 -7 -61 5 -21 13 -38 17 -39 4 -1 50 -2 102 -3 75 -2 101 1
124 15 17 10 23 19 17 23 -6 4 -8 18 -5 32 5 18 -1 30 -23 52 l-30 27 0 160
c-1 115 3 170 13 194 8 18 14 42 14 52 0 10 9 23 20 29 10 6 17 16 15 23 -7
16 30 38 51 30 12 -4 15 -14 11 -39 -5 -29 -3 -34 15 -34 15 0 18 -4 13 -17
-16 -43 -16 -72 0 -97 18 -26 9 -36 -13 -14 -9 9 -12 9 -12 -3 0 -8 5 -20 10
-25 7 -7 7 -28 0 -65 -6 -34 -7 -66 -1 -86 6 -21 6 -33 0 -33 -5 0 -3 -12 5
-28 12 -24 12 -31 0 -54 -8 -15 -23 -32 -34 -38 -15 -8 -20 -21 -20 -48 0 -48
15 -64 45 -50 16 7 29 7 44 -1 16 -9 26 -9 42 0 12 6 32 9 45 6 14 -2 24 0 23
7 -3 15 19 66 27 66 4 0 4 -15 1 -34 -6 -38 -9 -37 71 -39 23 0 42 -4 42 -7 0
-4 10 -6 23 -4 12 1 37 3 55 3 28 1 35 6 48 36 13 31 13 38 -1 59 -9 13 -25
26 -37 29 -15 4 -19 11 -13 24 9 23 10 145 0 204 -4 25 -2 62 3 81 5 20 6 41
2 48 -5 8 -5 23 0 35 4 12 3 62 -2 111 -13 108 -34 143 -88 143 -20 1 -41 6
-48 13 -9 9 -16 8 -30 -5 -10 -9 -26 -17 -34 -17 -9 0 -18 -7 -22 -15 -7 -19
-35 -9 -61 22 -11 13 -31 25 -45 26 -14 1 -34 8 -46 14 -17 10 -25 7 -54 -20z
m296 -163 c-4 -13 -1 -34 5 -46 14 -26 21 -223 8 -255 -5 -14 -5 -23 1 -23 14
0 12 -32 -4 -53 -8 -11 -12 -34 -9 -60 6 -64 -4 -72 -89 -67 -11 1 -18 9 -18
20 0 10 -4 21 -8 24 -7 4 -8 83 -1 112 1 5 -1 21 -5 37 -5 17 -4 32 3 41 8 10
8 21 1 41 -6 15 -7 32 -3 38 4 6 8 36 9 67 2 63 23 130 41 130 7 0 13 4 13 8
0 5 14 9 31 10 28 1 30 -2 25 -24z m-20 -549 c-4 -14 -11 -23 -16 -20 -14 9
-12 43 3 48 18 6 20 1 13 -28z"/>
<path d="M4008 2670 c-13 -10 -46 -29 -73 -42 -43 -20 -70 -49 -91 -98 -56
-126 -57 -131 -55 -260 1 -71 6 -126 11 -128 6 -2 10 -10 10 -19 0 -8 6 -29
14 -46 7 -18 19 -46 26 -64 15 -39 89 -108 138 -129 44 -18 179 -11 224 12 15
8 38 14 53 14 16 0 25 6 25 15 0 8 6 15 13 15 9 0 14 -22 16 -72 1 -40 4 -76
7 -79 2 -4 0 -10 -6 -14 -5 -3 -10 -23 -10 -43 0 -37 -19 -65 -64 -96 -21 -15
-29 -61 -13 -74 15 -12 137 -26 192 -23 51 3 66 16 63 53 -3 33 -21 53 -43 45
-23 -9 -25 4 -16 89 6 52 6 85 -1 98 -16 30 -16 378 0 384 6 2 10 8 7 12 -3 5
-5 73 -4 152 1 191 1 199 -4 228 -2 14 -5 34 -6 45 -1 19 -7 20 -111 18 -60
-1 -114 -4 -119 -7 -5 -3 -15 1 -22 10 -9 11 -22 13 -49 9 -20 -3 -48 -2 -62
4 -21 8 -31 6 -50 -9z m162 -123 c76 -3 111 -29 104 -77 -6 -32 -5 -33 8 -16
11 14 17 16 23 7 4 -7 2 -18 -4 -24 -18 -18 -13 -69 10 -93 18 -20 20 -28 11
-51 -17 -46 -25 -86 -23 -118 3 -42 -32 -119 -64 -141 -14 -11 -40 -30 -57
-43 -23 -19 -40 -24 -76 -22 -26 1 -64 3 -85 3 -34 0 -38 3 -35 22 1 12 -7 35
-20 50 -12 16 -22 39 -22 52 0 13 -4 24 -10 24 -18 0 -42 61 -34 89 9 32 6 76
-7 116 -10 27 -5 39 40 119 58 103 77 118 141 111 25 -3 70 -7 100 -8z m140
-587 c0 -5 -4 -10 -10 -10 -5 0 -10 5 -10 10 0 6 5 10 10 10 6 0 10 -4 10 -10z"/>
<path d="M8026 2683 c-4 -5 -48 -9 -98 -10 -51 -1 -96 -7 -104 -14 -23 -19
-17 -64 10 -77 42 -19 61 -57 48 -98 -5 -18 -7 -34 -2 -34 9 0 5 -269 -5 -292
-4 -10 -4 -39 -1 -65 3 -27 7 -68 9 -93 2 -25 7 -51 11 -58 10 -16 72 -42 100
-42 12 0 30 -6 41 -13 23 -16 92 -19 101 -6 4 6 11 6 18 0 9 -8 19 -4 36 14
17 18 27 22 36 14 16 -13 54 5 54 26 0 25 17 17 30 -15 11 -27 17 -30 59 -32
25 0 60 -2 76 -3 48 -3 68 12 61 46 -3 15 -1 31 4 34 21 13 10 54 -19 75 -27
19 -30 19 -39 4 -16 -28 -27 100 -12 136 7 17 9 42 5 57 -3 16 -8 87 -10 160
l-3 132 28 28 c36 36 45 85 21 107 -20 19 -44 20 -72 6 -11 -6 -25 -7 -32 -3
-6 4 -39 8 -72 9 -47 1 -65 -3 -82 -19 -41 -37 -19 -107 33 -107 27 0 42 -44
39 -112 -1 -33 2 -58 8 -58 5 0 7 -14 3 -32 -9 -45 -9 -56 3 -109 10 -48 5
-73 -34 -156 -15 -32 -24 -41 -38 -37 -10 3 -27 -2 -38 -12 -11 -10 -37 -19
-58 -20 -21 -1 -44 -4 -50 -8 -30 -19 -67 33 -62 87 2 19 -2 27 -13 27 -9 0
-16 7 -16 15 0 8 7 15 15 15 18 0 22 76 4 82 -8 3 -6 14 5 37 16 30 16 34 1
51 -14 16 -15 24 -4 59 10 33 10 46 0 64 -8 16 -10 38 -4 72 7 41 12 50 33 55
36 8 40 67 7 98 -13 12 -27 19 -31 15z"/>
<path d="M4665 2671 c-43 -5 -51 -10 -59 -33 -9 -25 -6 -31 32 -66 44 -41 48
-54 32 -96 -5 -14 -6 -26 -1 -26 14 0 19 -90 8 -145 -7 -35 -6 -50 2 -53 13
-4 15 -38 2 -46 -5 -3 -7 -15 -4 -25 3 -10 0 -22 -6 -25 -15 -10 -14 -76 3
-107 8 -16 10 -32 5 -41 -4 -8 -5 -28 0 -44 8 -33 58 -63 107 -64 17 0 37 -6
43 -13 13 -16 101 -20 101 -5 0 7 5 6 14 -1 10 -8 19 -5 39 13 15 14 29 20 32
15 10 -15 25 -10 50 17 l25 27 11 -32 c10 -28 15 -31 52 -32 23 -1 59 -3 80
-4 24 -1 46 4 60 15 19 16 20 20 7 35 -9 11 -10 19 -3 23 6 4 13 19 14 35 3
21 -2 32 -26 47 -28 19 -31 19 -43 3 -15 -21 -15 -27 -11 180 0 23 -2 98 -4
167 l-5 125 28 36 c35 45 45 80 30 108 -12 23 -40 27 -71 10 -13 -6 -25 -7
-32 -1 -7 5 -42 9 -78 8 -73 -1 -109 -21 -109 -60 0 -32 28 -66 53 -66 29 0
45 -38 45 -109 1 -30 5 -58 10 -63 6 -6 7 -22 1 -41 -10 -35 -2 -124 12 -133
8 -4 -11 -59 -33 -94 -5 -8 -14 -27 -21 -42 -8 -21 -16 -26 -30 -22 -11 3 -27
-2 -38 -12 -11 -10 -38 -19 -60 -20 -22 -1 -43 -4 -46 -8 -23 -22 -63 24 -63
73 0 28 -5 41 -17 46 -17 6 -17 7 0 19 19 14 25 86 7 86 -6 0 -1 18 10 39 17
35 18 40 4 45 -13 5 -15 16 -9 65 5 40 3 65 -6 78 -7 12 -9 28 -4 39 4 11 8
28 9 39 1 11 13 25 29 33 21 10 27 20 27 45 0 52 -11 60 -87 62 -37 1 -90 -1
-118 -4z"/>
<path d="M5667 2670 c-27 -3 -51 -11 -55 -16 -4 -6 -26 -19 -49 -30 -43 -19
-73 -67 -73 -114 0 -11 -5 -20 -11 -20 -6 0 -8 7 -5 16 3 8 2 12 -4 9 -14 -9
-13 -76 2 -72 6 1 14 -8 17 -20 8 -29 53 -63 85 -63 32 0 56 50 56 116 0 35 4
46 23 55 12 7 27 18 32 24 27 33 137 22 168 -16 14 -18 17 -37 15 -103 l-3
-81 -39 -3 c-23 -2 -45 -11 -52 -20 -12 -16 -13 -16 -19 1 -9 21 -85 25 -85 4
0 -8 -22 -19 -56 -27 -32 -8 -59 -21 -65 -31 -5 -10 -18 -21 -29 -24 -11 -3
-20 -13 -20 -22 0 -8 -9 -17 -20 -20 -11 -3 -20 -10 -20 -16 0 -5 -8 -16 -17
-23 -15 -10 -16 -17 -7 -41 7 -19 8 -38 2 -54 -6 -15 -6 -43 2 -76 12 -54 16
-59 98 -97 17 -8 32 -20 32 -25 0 -6 7 -11 16 -11 8 0 12 5 9 10 -4 6 16 10
51 10 69 0 244 21 226 28 -9 2 -3 9 13 18 39 20 52 18 69 -13 8 -16 15 -25 16
-21 0 4 13 3 30 -2 48 -14 94 4 113 46 17 35 15 74 -3 74 -5 0 -15 3 -23 6
-11 4 -16 -2 -19 -18 -4 -27 -21 -28 -27 -1 -2 10 -9 22 -16 28 -10 7 -15 67
-18 240 -3 127 -10 246 -16 266 -15 50 -45 85 -78 94 -16 3 -35 12 -43 19 -18
16 -136 25 -203 16z m89 -429 c12 -11 96 -31 133 -31 17 0 31 -4 31 -10 0 -5
-7 -10 -15 -10 -9 0 -15 -9 -15 -24 0 -39 -21 -85 -41 -91 -10 -4 -19 -13 -19
-20 0 -30 -24 -65 -43 -65 -12 0 -32 -10 -45 -22 -14 -13 -22 -17 -18 -10 4 7
1 12 -8 12 -10 0 -13 -6 -10 -15 5 -12 -2 -15 -29 -15 -48 0 -67 9 -67 30 0
12 -9 20 -22 22 -13 2 -29 15 -36 31 -7 15 -16 27 -20 27 -4 0 -8 19 -8 43 -1
23 1 36 3 30 5 -14 33 -18 33 -5 0 16 -19 34 -29 28 -6 -4 -11 -3 -11 2 0 5
19 15 43 22 23 8 49 20 58 27 8 7 22 13 30 13 8 0 24 7 36 15 12 8 29 12 39 8
12 -4 15 -3 10 5 -8 14 6 16 20 3z"/>
<path d="M5560 2025 c0 -17 22 -29 41 -23 6 2 0 12 -15 21 -23 15 -26 16 -26
2z"/>
<path d="M6278 2673 c-36 -4 -66 -32 -51 -47 4 -4 6 -24 5 -45 -2 -32 1 -39
20 -44 12 -4 32 -4 43 -1 21 5 21 2 18 -83 -3 -97 -4 -135 -1 -190 1 -21 0
-54 -2 -73 -1 -19 1 -58 5 -86 7 -45 5 -54 -14 -73 -11 -11 -21 -26 -21 -31 0
-6 -3 -9 -7 -9 -24 4 -33 -5 -42 -38 -9 -30 -7 -40 6 -55 18 -20 73 -24 103
-8 13 7 21 7 25 0 3 -5 32 -10 64 -10 47 0 61 4 79 23 21 23 21 23 2 55 -11
17 -31 34 -45 38 -19 5 -23 9 -15 19 8 9 6 14 -5 18 -12 5 -13 12 -4 34 5 15
9 39 7 53 -1 14 1 31 6 38 5 8 2 18 -9 25 -13 10 -14 18 -6 40 11 28 4 114
-10 133 -8 10 5 64 23 94 5 8 11 23 15 33 4 12 12 16 25 11 12 -3 27 1 39 12
13 12 40 19 84 21 70 4 85 -7 85 -62 0 -17 7 -28 23 -34 19 -8 20 -10 5 -16
-13 -5 -18 -18 -18 -46 0 -22 5 -39 11 -39 6 0 2 -16 -10 -35 -18 -32 -19 -36
-5 -42 14 -5 15 -16 10 -65 -5 -38 -3 -64 4 -73 6 -8 8 -29 4 -54 -7 -43 -33
-71 -66 -71 -14 0 -18 -8 -18 -34 0 -39 42 -82 69 -70 9 3 53 6 99 6 88 0 112
11 112 49 0 11 -16 35 -35 53 -36 35 -42 57 -25 100 5 14 6 26 1 26 -14 0 -21
96 -10 135 8 26 7 41 0 48 -13 13 -15 47 -2 47 5 0 9 10 10 23 2 64 -1 112 -8
122 -5 5 -9 29 -8 51 0 23 -3 47 -7 53 -11 16 -74 41 -106 41 -15 0 -33 6 -39
13 -13 16 -101 20 -101 5 0 -7 -5 -6 -14 1 -10 8 -19 5 -39 -13 -15 -14 -29
-20 -32 -15 -10 15 -45 10 -45 -6 0 -25 -19 -17 -35 16 -14 26 -21 30 -50 28
-19 -2 -37 0 -41 4 -4 4 -10 6 -13 5 -3 -1 -23 -3 -43 -5z"/>
<path d="M1760 2483 c-40 -71 -173 -301 -295 -513 -122 -212 -276 -478 -343
-592 l-120 -208 269 0 c192 0 269 3 269 11 0 8 4 8 14 0 9 -7 40 -11 78 -9 55
3 63 6 64 23 1 11 5 28 9 38 9 21 6 26 -21 30 -10 1 -21 7 -23 12 -2 6 -7 20
-12 32 -5 13 -4 25 1 28 6 4 10 11 10 16 0 6 -4 8 -9 5 -5 -3 -11 6 -14 19 -5
28 6 40 26 28 21 -13 39 -12 33 2 -3 8 -1 17 4 20 16 10 12 39 -7 57 -52 49
-52 61 -1 62 18 1 38 5 45 9 7 5 9 1 6 -13 -4 -16 -1 -18 20 -14 18 3 27 -1
30 -13 4 -15 6 -15 12 5 7 22 16 27 29 15 7 -7 32 -12 87 -16 25 -2 35 1 32 9
-2 6 5 14 17 17 25 6 40 -20 19 -34 -8 -5 -9 -9 -3 -9 5 0 15 5 21 11 14 14
36 2 27 -13 -5 -7 0 -9 14 -6 12 4 25 2 28 -3 3 -5 10 -6 16 -3 8 5 9 1 5 -10
-4 -10 -7 -20 -7 -22 0 -2 -7 -4 -15 -4 -20 0 -19 -16 1 -24 23 -9 31 -7 15 3
-11 7 -9 11 7 20 19 10 21 9 15 -6 -6 -16 -5 -16 10 -4 15 12 17 11 17 -3 0
-9 -4 -16 -10 -16 -5 0 -10 -4 -10 -9 0 -4 17 -8 38 -7 26 1 36 -3 34 -13 -2
-10 5 -12 23 -9 14 3 28 1 31 -4 3 -5 13 -7 22 -4 19 6 59 -20 48 -31 -4 -4
-11 -1 -16 7 -7 12 -10 12 -16 -3 -4 -10 -12 -16 -19 -13 -7 2 -16 2 -20 -2
-6 -6 -40 -10 -105 -12 -56 -3 -82 -12 -77 -28 20 -63 21 -60 -12 -58 -19 1
-31 -3 -31 -10 0 -10 -7 -9 -27 2 -16 7 -33 14 -39 14 -6 0 -16 10 -23 23 -14
26 -47 51 -78 61 -16 5 -25 2 -32 -12 -8 -16 -7 -19 6 -18 27 2 27 -31 -1 -59
-14 -14 -22 -26 -18 -26 25 -4 40 -4 59 3 12 4 25 3 28 -2 4 -6 16 -10 28 -11
12 0 16 -3 9 -6 -31 -12 6 -23 79 -23 72 0 83 3 100 23 15 18 18 19 19 6 0 -9
7 -20 16 -23 19 -7 514 -8 514 -1 0 9 -805 1411 -819 1428 -4 4 -40 -50 -81
-120z m-130 -983 c0 -5 -4 -10 -10 -10 -5 0 -10 5 -10 10 0 6 5 10 10 10 6 0
10 -4 10 -10z m770 -225 c-7 -9 -15 -13 -17 -11 -6 6 20 36 26 30 2 -2 -2 -10
-9 -19z m-280 -20 c14 -16 10 -18 -14 -9 -9 3 -16 10 -16 15 0 14 16 11 30 -6z
m400 5 c0 -5 -4 -10 -10 -10 -5 0 -10 5 -10 10 0 6 5 10 10 10 6 0 10 -4 10
-10z"/>
<path d="M2664 2575 c-9 -23 3 -45 26 -45 25 0 37 25 20 45 -16 19 -39 19 -46
0z"/>
<path d="M669 2528 c-18 -24 -37 -49 -42 -55 -6 -8 -6 -13 1 -13 12 0 87 99
79 106 -2 3 -19 -14 -38 -38z"/>
<path d="M2784 2435 c-8 -21 2 -45 19 -45 8 0 20 7 27 15 10 12 10 18 0 30 -7
8 -19 15 -27 15 -7 0 -16 -7 -19 -15z"/>
<path d="M557 2359 c-16 -28 -26 -53 -23 -56 7 -8 6 -9 39 49 29 49 31 58 20
58 -5 0 -21 -23 -36 -51z"/>
<path d="M2884 2285 c-8 -21 2 -45 19 -45 8 0 20 7 27 15 10 12 10 18 0 30 -7
8 -19 15 -27 15 -7 0 -16 -7 -19 -15z"/>
<path d="M485 2213 c-21 -50 -30 -91 -18 -78 16 17 53 115 43 115 -6 0 -17
-17 -25 -37z"/>
<path d="M2964 2125 c-9 -23 3 -45 25 -45 23 0 32 18 19 43 -11 21 -37 22 -44
2z"/>
<path d="M435 2078 c-19 -63 -26 -89 -30 -114 -3 -16 -10 -51 -17 -79 -6 -29
-11 -129 -12 -235 0 -154 4 -202 22 -287 83 -383 300 -707 619 -921 80 -54
222 -127 287 -147 28 -9 60 -20 71 -25 38 -17 123 -38 129 -33 3 4 -51 25
-122 48 -224 74 -391 175 -559 338 -210 203 -347 454 -410 747 -26 121 -25
440 1 559 10 46 24 101 32 122 8 23 9 39 3 39 -5 0 -11 -6 -14 -12z"/>
<path d="M3021 1957 c-17 -21 -3 -49 23 -45 15 2 21 10 21 28 0 28 -26 38 -44
17z"/>
<path d="M3054 1775 c-9 -23 3 -45 25 -45 21 0 33 22 25 45 -4 8 -15 15 -25
15 -11 0 -22 -7 -25 -15z"/>
<path d="M7350 1683 c0 -7 -6 -13 -13 -13 -25 0 -47 -36 -47 -76 0 -48 19 -77
60 -94 16 -7 30 -18 30 -25 0 -10 14 -7 51 8 56 24 79 56 79 109 -1 38 -13 57
-54 84 -34 21 -106 26 -106 7z"/>
<path d="M3407 1508 c-9 -213 -58 -383 -147 -513 -20 -29 -26 -45 -17 -45 40
0 128 185 163 345 19 84 32 355 17 355 -6 0 -12 -60 -16 -142z"/>
<path d="M3064 1595 c-8 -21 2 -45 19 -45 20 0 40 27 33 45 -7 19 -45 20 -52
0z"/>
<path d="M8975 1561 c-85 -40 -135 -120 -135 -218 1 -135 100 -233 235 -233
137 0 235 98 235 235 0 99 -55 183 -142 219 -51 22 -143 20 -193 -3z m180 -40
c141 -63 153 -253 22 -339 -79 -53 -201 -30 -256 47 -115 161 55 373 234 292z"/>
<path d="M8977 1473 c-4 -3 -7 -60 -7 -125 l0 -118 30 0 c29 0 30 2 30 46 0
44 1 45 27 42 21 -2 34 -14 51 -45 19 -35 29 -43 53 -43 16 0 29 2 29 5 0 13
-40 83 -54 95 -15 12 -15 14 4 27 21 15 27 66 11 91 -15 24 -156 44 -174 25z
m121 -75 c3 -22 -2 -29 -22 -34 -34 -8 -46 2 -46 37 0 28 2 30 33 27 26 -2 33
-8 35 -30z"/>
<path d="M1710 1499 c0 -5 5 -7 10 -4 6 3 10 8 10 11 0 2 -4 4 -10 4 -5 0 -10
-5 -10 -11z"/>
<path d="M5618 1434 c-8 -8 -39 -27 -69 -42 -54 -29 -108 -90 -109 -124 0 -9
-10 -34 -22 -55 -20 -33 -23 -53 -25 -163 -1 -117 10 -190 29 -190 4 0 7 -3 6
-7 -7 -26 37 -115 75 -149 23 -21 44 -39 47 -39 3 0 20 -9 39 -19 28 -15 47
-17 120 -11 47 4 98 14 113 21 15 8 36 14 46 14 11 0 25 7 32 15 22 26 25 17
22 -60 -2 -55 1 -75 10 -75 9 -1 7 -5 -4 -13 -11 -9 -18 -30 -19 -65 -1 -28
-6 -49 -10 -47 -4 3 -12 -2 -19 -10 -7 -8 -18 -15 -25 -15 -18 0 -33 -42 -24
-66 6 -18 20 -23 76 -30 68 -9 118 -8 161 1 18 4 22 12 22 40 0 35 -23 58 -52
53 -8 -2 -12 6 -11 22 1 14 4 54 7 90 2 35 1 71 -4 80 -9 17 -19 319 -12 356
2 13 8 22 12 19 5 -3 6 39 4 92 -2 54 -4 103 -5 108 0 6 2 39 4 75 5 75 -11
193 -24 184 -14 -9 -150 -11 -181 -3 -16 4 -30 3 -34 -2 -4 -6 -13 -4 -23 5
-12 11 -28 14 -49 10 -17 -3 -44 -2 -60 4 -23 8 -33 7 -44 -4z m152 -128 c34
-1 66 -9 83 -21 25 -16 28 -23 23 -54 -6 -33 -5 -35 8 -17 14 17 16 18 22 2 3
-9 1 -23 -6 -31 -15 -18 -5 -64 17 -80 14 -11 15 -19 4 -66 -7 -30 -14 -75
-16 -100 -3 -59 -42 -136 -79 -157 -16 -9 -38 -25 -47 -34 -27 -26 -66 -32
-110 -19 -27 8 -45 9 -58 2 -24 -13 -32 -4 -25 26 5 17 0 30 -15 44 -12 11
-24 34 -28 50 -3 16 -9 29 -12 29 -15 0 -38 65 -31 85 9 23 4 84 -10 119 -5
15 -4 31 5 47 8 13 21 38 29 54 59 116 86 139 151 130 22 -4 65 -7 95 -9z"/>
<path d="M3061 1427 c-16 -16 -14 -47 5 -54 20 -8 46 19 39 39 -9 22 -30 29
-44 15z"/>
<path d="M6274 1432 c-42 -2 -53 -7 -61 -25 -14 -33 -5 -55 28 -72 32 -17 44
-50 36 -94 -3 -16 -3 -32 1 -36 10 -10 10 -228 0 -242 -5 -6 -4 -14 2 -18 8
-5 8 -11 0 -21 -8 -8 -10 -34 -6 -71 3 -32 6 -76 6 -98 0 -22 3 -45 8 -51 12
-18 69 -44 97 -44 15 0 38 -9 52 -20 14 -11 30 -17 37 -13 6 4 19 6 30 4 10
-1 23 3 27 11 7 11 11 10 18 -2 8 -12 14 -11 35 9 15 14 31 21 43 17 21 -7 36
2 50 28 10 18 12 17 27 -12 9 -18 22 -32 29 -33 6 0 41 -2 77 -5 82 -6 111 9
93 49 -7 14 -8 27 -3 29 5 2 11 15 15 29 5 21 1 29 -21 44 -22 14 -31 15 -47
6 -17 -11 -18 -10 -12 9 4 12 1 35 -5 50 -10 24 -9 38 6 79 16 46 16 51 0 85
-14 29 -15 42 -5 79 8 32 8 55 0 84 -15 54 -5 94 31 133 23 25 28 40 26 68 -4
46 -27 61 -69 45 -18 -7 -37 -9 -43 -6 -6 4 -40 7 -76 8 -74 0 -99 -17 -100
-71 0 -35 15 -54 45 -54 29 0 47 -42 48 -110 0 -30 4 -61 9 -67 7 -8 6 -23 0
-42 -11 -32 -5 -109 11 -128 6 -9 4 -21 -7 -38 -9 -13 -16 -33 -16 -44 0 -11
-5 -23 -11 -26 -5 -4 -15 -18 -20 -32 -6 -16 -14 -23 -24 -19 -8 3 -30 -3 -47
-13 -18 -10 -54 -21 -80 -25 -43 -5 -49 -3 -68 22 -15 19 -20 35 -16 55 4 19
1 30 -9 33 -20 8 -19 34 0 34 18 0 21 60 4 77 -8 8 -6 20 6 43 15 30 15 33 -2
45 -16 12 -16 18 -6 57 10 35 9 49 -4 76 -11 22 -12 36 -5 45 6 6 12 26 14 42
2 22 9 31 25 33 14 2 25 12 29 26 5 23 -10 75 -23 77 -23 3 -135 4 -179 1z"/>
<path d="M7350 1420 c0 -11 -4 -20 -10 -20 -5 0 -10 5 -10 10 0 6 -31 9 -77 8
-64 -3 -81 -7 -92 -22 -36 -49 -14 -96 37 -78 39 13 132 3 132 -14 0 -8 4 -14
8 -14 5 0 10 -37 12 -82 3 -109 3 -110 -4 -202 -3 -43 -1 -98 4 -122 13 -56
-11 -104 -52 -104 -15 0 -29 -4 -32 -9 -3 -4 -29 -11 -58 -14 -72 -8 -138 -42
-138 -71 0 -31 20 -49 37 -34 10 8 19 8 36 0 31 -16 265 -10 296 7 22 12 23
12 17 -4 -5 -14 -2 -16 19 -11 14 4 34 2 45 -4 17 -9 20 -8 20 10 0 20 1 20
22 6 26 -19 99 -21 116 -4 8 8 15 8 25 0 17 -14 27 -6 27 23 0 24 -42 75 -62
75 -95 2 -142 10 -150 24 -5 9 -16 16 -23 16 -8 0 -15 3 -16 8 -6 37 -5 472 1
487 4 11 3 30 -3 43 -7 15 -7 29 1 47 10 22 9 25 -7 25 -10 0 -30 9 -44 20
-14 11 -37 20 -51 20 -19 0 -26 -5 -26 -20z"/>
<path d="M8144 1422 c-43 -22 -132 -26 -162 -6 -22 14 -33 15 -71 6 -25 -6
-61 -14 -78 -17 -30 -6 -33 -10 -33 -45 0 -37 2 -39 38 -46 55 -10 63 -20 62
-83 0 -31 2 -132 4 -226 9 -399 9 -430 -4 -467 -11 -28 -11 -45 -3 -73 12 -38
9 -49 -31 -107 -19 -28 -15 -48 10 -48 10 0 13 7 8 25 -6 23 -3 25 27 25 18 0
40 -6 48 -14 9 -7 49 -18 90 -25 69 -11 76 -10 94 8 14 14 18 26 13 46 -7 28
-11 30 -69 40 -52 8 -77 36 -77 83 0 21 -4 42 -9 47 -5 6 -6 37 -3 70 7 57 8
60 36 63 16 2 45 -3 65 -11 20 -8 69 -19 109 -24 69 -8 78 -7 135 18 65 29
116 76 118 109 2 28 3 31 15 65 20 54 31 114 23 126 -4 7 -3 21 2 32 19 35 13
171 -10 223 -12 25 -21 50 -21 55 0 4 -12 28 -27 53 -19 30 -39 49 -60 56 -17
6 -44 21 -60 33 -22 17 -41 22 -91 22 -34 0 -74 -6 -88 -13z m156 -115 c28
-14 70 -82 70 -114 0 -12 8 -28 18 -35 23 -16 26 -71 7 -107 -11 -22 -11 -29
1 -46 21 -28 17 -78 -8 -110 -12 -16 -24 -38 -25 -49 -2 -11 -12 -30 -23 -41
-11 -12 -20 -27 -20 -33 0 -16 -31 -28 -96 -36 -44 -7 -54 -4 -80 16 -16 13
-42 32 -57 41 -15 10 -33 30 -39 45 -5 15 -14 35 -19 45 -6 10 -9 35 -9 55 1
20 -6 64 -16 96 -15 55 -15 61 0 71 9 7 16 21 16 32 0 11 9 31 20 44 69 84 94
109 109 109 9 1 27 7 41 15 31 18 77 19 110 2z"/>
<path d="M3022 1248 c-16 -16 -15 -33 3 -48 12 -10 18 -10 30 0 20 16 19 46
-1 54 -20 8 -18 8 -32 -6z"/>
<path d="M2962 1078 c-16 -16 -15 -33 3 -48 12 -10 18 -10 30 0 20 16 19 46
-1 54 -20 8 -18 8 -32 -6z"/>
<path d="M2876 903 c-4 -9 0 -23 9 -32 13 -14 17 -14 31 1 9 9 14 24 11 32 -8
21 -43 20 -51 -1z"/>
<path d="M2776 753 c-4 -9 0 -23 9 -32 13 -14 17 -14 31 1 9 9 14 24 11 32 -8
21 -43 20 -51 -1z"/>
<path d="M2660 626 c-18 -22 -5 -48 22 -44 17 2 23 10 23 28 0 29 -26 38 -45
16z"/>
<path d="M7896 583 c-6 -14 -5 -15 5 -6 7 7 10 15 7 18 -3 3 -9 -2 -12 -12z"/>
<path d="M2533 513 c-18 -7 -16 -42 3 -50 8 -3 23 1 31 10 13 13 14 19 3 31
-13 17 -17 18 -37 9z"/>
<path d="M2383 413 c-18 -7 -16 -42 3 -50 8 -3 23 1 31 10 13 13 14 19 3 31
-13 17 -17 18 -37 9z"/>
<path d="M7910 340 c-13 -8 -12 -10 3 -10 9 0 17 5 17 10 0 12 -1 12 -20 0z"/>
<path d="M2223 333 c-13 -5 -18 -35 -7 -45 3 -3 14 -3 25 -1 13 4 19 12 17 26
-3 22 -15 29 -35 20z"/>
<path d="M2074 261 c4 -5 1 -12 -4 -14 -6 -3 -5 -4 2 -3 15 3 23 26 8 26 -6 0
-9 -4 -6 -9z"/>
<path d="M1550 231 c0 -10 60 -21 105 -20 29 1 29 1 5 8 -46 14 -110 21 -110
12z"/>
<path d="M1734 209 c-3 -5 25 -9 63 -8 76 1 74 5 -5 12 -29 2 -55 0 -58 -4z"/>
</g>
</svg>
