<?xml version="1.0" encoding="UTF-8"?> <svg xmlns="http://www.w3.org/2000/svg" fill="none" height="200" viewBox="0 0 570 200" width="570"><g fill="#000"><path d="m62.6037 90.2358c5.6965-6.9923 16.9098-6.2674 23.5172-.9687-1.2125 1.4818-2.4377 2.9573-3.6694 4.4199-2.521-1.4754-5.2987-2.7777-8.2881-2.752-2.3607-.0449-5.1255.2309-6.6651 2.2709-1.8475 2.181-1.2316 6.0557 1.4241 7.3061 4.3237 2.207 9.539 2.624 13.2725 5.966 3.246 2.534 4.606 7.082 3.2524 10.976-1.2958 3.978-5.1191 6.608-9.045 7.57-5.5361 1.244-11.5662-.173-16.031-3.657 1.206-1.494 2.4313-2.97 3.663-4.439 3.6821 2.367 8.3137 3.573 12.5989 2.258 2.9188-.859 4.3878-4.721 2.7135-7.281-1.3086-2.219-3.9837-2.771-6.2546-3.483-3.7591-1.123-7.6915-2.553-10.3088-5.632-3.0086-3.445-2.9572-8.994-.1796-12.5542z"></path><path d="m109.657 85.4631c8.795-2.0143 18.52 2.7328 22.311 10.9311 4.08 8.1148 1.739 18.8018-5.414 24.4278-6.248 5.216-15.729 5.985-22.741 1.848-7.0497-3.913-11.1553-12.368-9.9044-20.336 1.0328-8.1979 7.6464-15.2672 15.7484-16.8709zm.623 6.9602c-4.972 1.3407-8.898 5.8248-9.552 10.9377-.8214 5.388 2.097 11.059 6.941 13.535 4.747 2.598 11.046 1.809 15.011-1.866 4.073-3.567 5.529-9.732 3.457-14.736-2.303-6.1322-9.558-9.7823-15.857-7.8707z"></path><path d="m182.203 92.3718c3.926-4.8304 10.187-7.6402 16.41-7.3194 5.029.1411 9.84 2.3992 13.458 5.8568-1.623 1.6294-3.252 3.2588-4.875 4.8882-2.226-1.9694-4.933-3.4961-7.935-3.772-5.434-.7056-11.053 2.412-13.388 7.3515-2.329 4.6061-1.565 10.5331 1.841 14.4141 3.169 3.785 8.557 5.511 13.33 4.221 2.342-.545 4.375-1.911 6.171-3.464 1.604 1.655 3.233 3.285 4.85 4.927-3.778 3.586-8.846 5.882-14.106 5.85-7.23.167-14.338-3.964-17.783-10.315-4.028-7.031-3.188-16.4349 2.027-22.6382z"></path><path d="m233.472 85.4502c9.006-2.04 18.924 3.0343 22.51 11.5469 3.996 8.5899.853 19.7069-7.102 24.8709-6.562 4.567-15.864 4.606-22.458.102-6.569-4.24-10.104-12.547-8.686-20.226 1.257-7.9865 7.8-14.7542 15.736-16.2938zm.603 6.9602c-5.293 1.3856-9.379 6.3508-9.7 11.8166-.468 5.337 2.714 10.725 7.583 12.945 4.83 2.361 11.04 1.309 14.838-2.495 3.759-3.574 5.048-9.437 3.13-14.254-2.252-6.1843-9.52-9.9114-15.851-8.0126z"></path><path d="m34.5319 86.0211c1.6678-.0513 3.3421-.0577 5.01-.0321-.3977 3.7784-1.129 7.5055-1.5331 11.2839h5.241c.558-3.7527 1.129-7.5055 1.6165-11.271 1.6422-.0321 3.2909-.0321 4.9331-.0193-.3785 3.7784-1.097 7.5119-1.5268 11.2903 1.5781 0 3.1562.0064 4.7343.0064.0128 1.6358.0128 3.2657 0 4.9007-1.8155.007-3.6309.007-5.4463 0-.34 2.085-.5838 4.176-.8917 6.261 1.623-.013 3.246-.006 4.8689.032.0129 1.585.0129 3.169 0 4.754-1.8346.013-3.6757.019-5.5104.025-.4105 3.785-1.1226 7.532-1.5973 11.31-1.6679.058-3.3358.058-4.9972.013.5324-3.779 1.1611-7.538 1.578-11.329-1.7705-.006-3.541 0-5.3115 0-.4811 3.785-1.1291 7.544-1.5909 11.329-1.6551.038-3.3101.038-4.9652.013.4426-3.792 1.1419-7.544 1.5524-11.336-1.5652-.006-3.1305-.012-4.6957-.012 0-1.604 0-3.201.0064-4.805 1.777-.007 3.5603 0 5.3437 0 .3592-2.079.6158-4.176.9686-6.255-1.623.007-3.2459.007-4.8689-.038-.0321-1.617-.0257-3.2269 0-4.8435 1.8411-.0192 3.6821-.032 5.5232-.032.4427-3.7592 1.1034-7.4863 1.5589-11.2454zm1.8603 22.4269c1.7705-.013 3.541-.02 5.318-.013.2886-2.085.526-4.183.8916-6.261-1.7705.013-3.5474.013-5.3243.006-.3208 2.085-.571 4.183-.8853 6.268z"></path><path d="m138.011 86.0467c2.791-.0064 5.588-.0064 8.384-.0064 3.214 5.3629 6.409 10.7386 9.616 16.1017 3.246-5.3631 6.479-10.7324 9.725-16.0953 2.65-.0064 5.299-.0064 7.955 0-4.497 6.7742-8.962 13.5676-13.484 20.3163-.392.686-1.001 1.347-.924 2.2-.051 5.28.013 10.566-.013 15.845-2.29.006-4.574.006-6.851 0-.019-5.228.013-10.456-.006-15.685.089-.878-.437-1.603-.879-2.302-4.536-6.7746-9.02-13.5809-13.523-20.3743z"></path><path d="m266.926 86.0468c4.997.0513 10.007-.1283 15.004.0962 4.086.2245 8.68 1.6486 10.713 5.504 2.361 4.715 1.527 11.489-3.227 14.421-4.638 2.944-10.385 2.463-15.639 2.508-.007 5.279.006 10.553-.007 15.832-2.283.006-4.567.006-6.844 0-.007-12.785-.007-25.5763 0-38.3612zm6.851 5.7734c0 3.6437-.007 7.2938 0 10.9378 3.541-.109 7.326.487 10.629-1.11 3.407-1.578 3.484-7.2362.045-8.8271-3.342-1.4947-7.127-.866-10.674-1.0007z"></path><path d="m296.915 86.0467c2.791-.0064 5.588-.0064 8.385-.0064 3.213 5.3629 6.408 10.7386 9.616 16.1017 3.246-5.3631 6.479-10.7324 9.718-16.0953 2.656-.0064 5.312-.0064 7.968 0-4.741 7.2553-9.681 14.3953-14.306 21.7273-.244 5.53-.019 11.091-.102 16.634-2.284.006-4.568.006-6.845 0-.09-5.523.147-11.066-.103-16.576-4.625-7.352-9.59-14.5044-14.331-21.7853z"></path><path d="m333.987 86.0467c2.502-.0064 5.004-.0064 7.512-.0064 2.489 9.4171 4.946 18.8407 7.448 28.2517 2.835-9.411 5.645-18.8346 8.48-28.2453 2.355-.0064 4.709-.0064 7.07 0 2.771 9.4107 5.523 18.8283 8.307 28.2383 2.566-9.404 5.068-18.8276 7.615-28.2447 2.431 0 4.862 0 7.3.0064-3.74 12.785-7.467 25.5763-11.214 38.3613-2.213 0-4.426 0-6.639.006-3.015-9.609-5.998-19.225-9.013-28.8283-3.028 9.6033-5.998 19.2193-9.019 28.8223-2.214.006-4.427.006-6.64 0-3.74-12.785-7.473-25.5763-11.207-38.3613z"></path><path d="m394.377 86.0469c4.433 0 8.866-.0193 13.299 0 3.566.0449 7.351.5966 10.296 2.7841 5.266 3.7976 5.228 12.926-.199 16.57-1.38 1.013-3.035 1.52-4.632 2.078 3.387 5.645 6.794 11.278 10.174 16.929-2.765.007-5.523.007-8.281 0-2.951-5.414-5.909-10.822-8.866-16.236-1.642 0-3.291 0-4.933 0-.006 5.414 0 10.828-.006 16.236-2.284.007-4.568.007-6.852 0 0-12.785 0-25.5762 0-38.3611zm6.858 5.7734c-.006 3.5796-.006 7.1591 0 10.7387 3.746-.167 7.794.584 11.277-1.142 3.202-1.6165 3.368-6.8896.09-8.5061-3.522-1.7257-7.595-.9045-11.367-1.0906z"></path><path d="m430.583 86.0468c2.284-.0064 4.568-.0064 6.851 0 .007 12.785.007 25.5762 0 38.3612-2.283.007-4.567.007-6.851 0 0-12.785 0-25.5762 0-38.3612z"></path><path d="m443.978 86.0467c10.11-.0064 20.226-.0064 30.342-.0064 0 2.0079 0 4.0093.007 6.0172-3.92 0-7.833-.0064-11.746 0-.013 10.7835 0 21.5665-.007 32.3505-2.29.006-4.567.006-6.851 0-.006-10.784 0-21.567-.006-32.3505-3.913-.0064-7.833 0-11.746 0 0-2.0079 0-4.0093.007-6.0108z"></path><path d="m480.902 86.0403c8.468 0 16.942 0 25.416.0064v6.0044c-6.19.0128-12.374 0-18.558.0064-.007 3.2331-.007 6.4662 0 9.6995 5.85.006 11.7-.007 17.551.006v5.767c-5.851.007-11.701-.006-17.551 0-.007 3.599-.007 7.191 0 10.784 6.504.013 13.009 0 19.514.006.006 2.027 0 4.061 0 6.088-8.789.006-17.584 0-26.372 0-.006-12.785-.006-25.5763 0-38.3677z"></path><path d="m516.069 86.0467c4.285 0 8.576-.0064 12.868-.0064 3.618.0256 7.454.4875 10.488 2.6301 5.434 3.6629 5.543 12.8876.154 16.6406-1.411 1.071-3.117 1.61-4.766 2.162 3.406 5.638 6.794 11.29 10.187 16.935-2.765.006-5.517 0-8.275.006-2.97-5.407-5.915-10.834-8.879-16.242-1.648 0-3.29 0-4.926 0-.007 5.414 0 10.828-.007 16.236-2.283.006-4.567.006-6.844 0-.013-12.785-.007-25.5763 0-38.3613zm6.851 5.7734c-.007 3.5796-.007 7.1591 0 10.7319 3.656-.134 7.537.52 10.995-.988 3.355-1.43 3.785-6.7994.513-8.5635-3.528-1.8539-7.691-.9815-11.508-1.1804z"></path></g></svg> 